<?xml version="1.0" encoding="UTF-8"?>
<svg id="Layer_1" xmlns="http://www.w3.org/2000/svg" version="1.1" viewBox="0 0 1948.81 537.49">
  <!-- Generator: Adobe Illustrator 29.8.3, SVG Export Plug-In . SVG Version: 2.1.1 Build 3)  -->
  <defs>
    <style>
      .st0 {
        fill: none;
        stroke: #000;
        stroke-miterlimit: 10;
      }
    </style>
  </defs>
  <path class="st0" d="M139.01,499.03l10.69-35.62L55.15,238.13s76.46-18.91,150.46-79.75c74-60.84,149.64-134.02,305.03-117.57,0,0,92.08,11.51,193.21,98.66,101.13,87.15,169.37,99.48,169.37,99.48l-92.08,221.17,9.04,38.91H139.01"/>
  <path class="st0" d="M1809.8,499.03l-10.69-35.62,94.55-225.28s-76.46-18.91-150.46-79.75c-74-60.84-149.64-134.02-305.03-117.57,0,0-92.08,11.51-193.21,98.66-101.13,87.15-169.37,99.48-169.37,99.48l92.08,221.17-9.04,38.91h651.17"/>
</svg>